<svg width="125" height="28" viewBox="0 0 125 28" fill="none" xmlns="http://www.w3.org/2000/svg">
<path d="M32.3621 18.9115L29.3215 14.3801V18.9115H26.0447V8.4613H29.3215V12.8598L32.3178 8.4613H36.0226L32.4211 13.465L36.2588 18.9115H32.3621ZM45.3935 8.4613V11.0591H42.6185V18.9115H39.3418V11.0591H36.5964V8.4613H45.3935ZM49.559 16.4318H52.7177V18.9115H46.2823V8.4613H49.559V16.4318ZM71.3123 8.4613L68.9211 18.9115H64.8473L63.637 12.9779L62.4267 18.9115H58.3529L55.9617 8.4613H59.4894L60.434 15.0443L61.851 8.4613H65.423L66.8399 15.0443L67.7846 8.4613H71.3123ZM75.7641 11.0738V12.358H79.0113V14.8229H75.7641V16.2989H79.4541V18.9115H72.4873V8.4613H79.4541V11.0738H75.7641ZM87.6852 13.5536C88.315 13.7012 88.8021 14.0062 89.1465 14.4687C89.5007 14.9213 89.6778 15.4478 89.6778 16.048C89.6778 16.9631 89.3729 17.6716 88.7627 18.1735C88.1626 18.6655 87.2966 18.9115 86.1649 18.9115H80.6889V8.4613H86.0173C87.08 8.4613 87.9165 8.69255 88.5265 9.15503C89.1368 9.61751 89.4417 10.2916 89.4417 11.1772C89.4417 11.7872 89.2793 12.3039 88.9546 12.727C88.6398 13.1403 88.2166 13.4158 87.6852 13.5536ZM83.9656 12.5351H85.235C85.5302 12.5351 85.7468 12.4761 85.8845 12.358C86.0321 12.2399 86.1059 12.0579 86.1059 11.8119C86.1059 11.556 86.0321 11.3691 85.8845 11.251C85.7468 11.123 85.5302 11.0591 85.235 11.0591H83.9656V12.5351ZM85.4564 16.2842C85.7516 16.2842 85.9682 16.2301 86.1059 16.1218C86.2535 16.0037 86.3273 15.8168 86.3273 15.5609C86.3273 15.0591 86.0371 14.8082 85.4564 14.8082H83.9656V16.2842H85.4564ZM97.6412 8.4613C98.7334 8.4613 99.688 8.68271 100.505 9.12551C101.331 9.56832 101.966 10.1833 102.409 10.9705C102.851 11.7577 103.073 12.6532 103.073 13.6569C103.073 14.6507 102.851 15.5462 102.409 16.3432C101.966 17.1403 101.331 17.77 100.505 18.2325C99.688 18.6852 98.7334 18.9115 97.6412 18.9115H93.2869V8.4613H97.6412ZM97.3459 15.989C98.084 15.989 98.6695 15.7873 99.1024 15.3838C99.5355 14.9804 99.7519 14.4047 99.7519 13.6569C99.7519 12.909 99.5355 12.3334 99.1024 11.9299C98.6695 11.5265 98.084 11.3248 97.3459 11.3248H96.5637V15.989H97.3459ZM107.533 11.0738V12.358H110.78V14.8229H107.533V16.2989H111.223V18.9115H104.256V8.4613H111.223V11.0738H107.533ZM122.982 8.4613L119.469 18.9115H115.233L111.72 8.4613H115.203L117.358 15.6495L119.498 8.4613H122.982Z" fill="url(#paint0_linear_43_5)"/>
<path d="M19.1111 15.369C20.1716 14.9232 20.782 14.4093 20.7343 13.166C21.2256 12.8151 21.3235 12.5519 20.7343 11.7958C20.1746 11.2148 19.8877 10.8884 18.5919 10.326C18.0373 9.16774 18.0755 8.59382 16.026 7.11241C15.0544 4.72089 13.186 3.2262 6.36014 4.24751C6.98235 4.55893 7.26187 4.7509 7.45624 5.16933C5.85645 4.79587 4.85098 5.69419 3.02192 7.66054C2.61858 8.00438 2.35394 8.09788 1.80123 8.05913C2.0726 8.28243 2.35405 8.34112 3.17139 8.28333C-1.61169 11.9454 3.42054 22.3337 11.3674 21.5116C12.5819 22.2702 13.1359 22.7654 13.9334 23.7536C14.4571 22.8523 14.7932 22.3607 14.5562 21.2127L15.0046 21.9351C15.0966 20.461 15.0114 19.5876 14.332 17.8495C14.7666 18.0479 15.0851 18.2487 15.3534 18.7464V19.2446C16.643 19.4519 17.2415 19.241 17.6951 17.2516C18.0947 17.0473 18.2558 16.8976 18.4425 16.579C17.9871 16.7856 17.5619 16.9027 17.1969 16.579C16.8642 16.0408 16.7127 15.7324 16.6986 15.1341C17.4853 14.3947 18.0627 14.2193 19.3642 14.3868C19.4645 14.7779 19.3993 14.9923 19.1111 15.369Z" fill="#0EA5E9"/>
<defs>
<linearGradient id="paint0_linear_43_5" x1="27.214" y1="13.6864" x2="122.982" y2="13.6864" gradientUnits="userSpaceOnUse">
<stop stop-color="#0284C7"/>
<stop offset="1" stop-color="#0EA5E9"/>
</linearGradient>
</defs>
</svg>
