<svg width="518" height="120" viewBox="0 0 518 120" fill="none" xmlns="http://www.w3.org/2000/svg">
<path d="M123.322 82L110.138 62.352V82H95.9297V36.688H110.138V55.76L123.13 36.688H139.194L123.578 58.384L140.218 82H123.322ZM179.826 36.688V47.952H167.794V82H153.586V47.952H141.682V36.688H179.826ZM197.888 71.248H211.584V82H183.68V36.688H197.888V71.248ZM292.21 36.688L281.842 82H264.178L258.93 56.272L253.682 82H236.018L225.65 36.688H240.946L245.042 65.232L251.186 36.688H266.674L272.818 65.232L276.914 36.688H292.21ZM311.513 48.016V53.584H325.593V64.272H311.513V70.672H327.513V82H297.305V36.688H327.513V48.016H311.513ZM363.203 58.768C365.934 59.408 368.046 60.7307 369.539 62.736C371.075 64.6987 371.843 66.9813 371.843 69.584C371.843 73.552 370.521 76.624 367.875 78.8C365.273 80.9333 361.518 82 356.611 82H332.867V36.688H355.971C360.579 36.688 364.206 37.6907 366.851 39.696C369.497 41.7013 370.819 44.624 370.819 48.464C370.819 51.1093 370.115 53.3493 368.707 55.184C367.342 56.976 365.507 58.1707 363.203 58.768ZM347.075 54.352H352.579C353.859 54.352 354.798 54.096 355.395 53.584C356.035 53.072 356.355 52.2827 356.355 51.216C356.355 50.1067 356.035 49.296 355.395 48.784C354.798 48.2293 353.859 47.952 352.579 47.952H347.075V54.352ZM353.539 70.608C354.819 70.608 355.758 70.3733 356.355 69.904C356.995 69.392 357.315 68.5813 357.315 67.472C357.315 65.296 356.057 64.208 353.539 64.208H347.075V70.608H353.539ZM406.372 36.688C411.108 36.688 415.247 37.648 418.788 39.568C422.372 41.488 425.124 44.1547 427.044 47.568C428.964 50.9813 429.924 54.864 429.924 59.216C429.924 63.5253 428.964 67.408 427.044 70.864C425.124 74.32 422.372 77.0507 418.788 79.056C415.247 81.0187 411.108 82 406.372 82H387.492V36.688H406.372ZM405.092 69.328C408.292 69.328 410.831 68.4533 412.708 66.704C414.586 64.9547 415.524 62.4587 415.524 59.216C415.524 55.9733 414.586 53.4773 412.708 51.728C410.831 49.9787 408.292 49.104 405.092 49.104H401.7V69.328H405.092ZM449.263 48.016V53.584H463.343V64.272H449.263V70.672H465.263V82H435.055V36.688H465.263V48.016H449.263ZM516.249 36.688L501.017 82H482.649L467.417 36.688H482.521L491.865 67.856L501.145 36.688H516.249Z" fill="black"/>
<path d="M82.8661 66.6402C87.4646 64.7072 90.1109 62.4791 89.9044 57.088C92.0344 55.5666 92.459 54.4252 89.9044 51.147C87.4774 48.6277 86.2335 47.2125 80.6148 44.7739C78.2101 39.7515 78.3757 37.263 69.489 30.8396C65.2763 20.47 57.1749 13.989 27.5779 18.4174C30.2758 19.7677 31.4878 20.6001 32.3306 22.4144C25.3939 20.7951 21.0342 24.6902 13.1034 33.2163C11.3545 34.7072 10.207 35.1126 7.81051 34.9446C8.98719 35.9128 10.2075 36.1673 13.7515 35.9167C-6.98791 51.7954 14.8318 96.8391 49.2895 93.2745C54.5554 96.5637 56.9575 98.711 60.4155 102.996C62.6864 99.0876 64.1438 96.956 63.116 91.9783L65.0603 95.1108C65.4591 88.7193 65.0896 84.9322 62.1438 77.3958C64.0282 78.2561 65.4093 79.1266 66.5726 81.2844V83.4448C72.1645 84.3435 74.7596 83.4291 76.7263 74.8033C78.4591 73.9171 79.1576 73.2684 79.9669 71.8869C77.9922 72.7824 76.1488 73.2904 74.566 71.8869C73.1237 69.553 72.4668 68.2158 72.4056 65.6218C75.8168 62.4156 78.32 61.6551 83.9636 62.3812C84.3983 64.0772 84.1156 65.0069 82.8661 66.6402Z" fill="black" stroke="black"/>
</svg>
