<svg width="542" height="120" viewBox="0 0 542 120" fill="none" xmlns="http://www.w3.org/2000/svg">
<path d="M140.322 82L127.138 62.352V82H112.93V36.688H127.138V55.76L140.13 36.688H156.194L140.578 58.384L157.218 82H140.322ZM196.826 36.688V47.952H184.794V82H170.586V47.952H158.682V36.688H196.826ZM214.888 71.248H228.584V82H200.68V36.688H214.888V71.248ZM309.21 36.688L298.842 82H281.178L275.93 56.272L270.682 82H253.018L242.65 36.688H257.946L262.042 65.232L268.186 36.688H283.674L289.818 65.232L293.914 36.688H309.21ZM328.513 48.016V53.584H342.593V64.272H328.513V70.672H344.513V82H314.305V36.688H344.513V48.016H328.513ZM380.203 58.768C382.934 59.408 385.046 60.7307 386.539 62.736C388.075 64.6987 388.843 66.9813 388.843 69.584C388.843 73.552 387.521 76.624 384.875 78.8C382.273 80.9333 378.518 82 373.611 82H349.867V36.688H372.971C377.579 36.688 381.206 37.6907 383.851 39.696C386.497 41.7013 387.819 44.624 387.819 48.464C387.819 51.1093 387.115 53.3493 385.707 55.184C384.342 56.976 382.507 58.1707 380.203 58.768ZM364.075 54.352H369.579C370.859 54.352 371.798 54.096 372.395 53.584C373.035 53.072 373.355 52.2827 373.355 51.216C373.355 50.1067 373.035 49.296 372.395 48.784C371.798 48.2293 370.859 47.952 369.579 47.952H364.075V54.352ZM370.539 70.608C371.819 70.608 372.758 70.3733 373.355 69.904C373.995 69.392 374.315 68.5813 374.315 67.472C374.315 65.296 373.057 64.208 370.539 64.208H364.075V70.608H370.539ZM423.372 36.688C428.108 36.688 432.247 37.648 435.788 39.568C439.372 41.488 442.124 44.1547 444.044 47.568C445.964 50.9813 446.924 54.864 446.924 59.216C446.924 63.5253 445.964 67.408 444.044 70.864C442.124 74.32 439.372 77.0507 435.788 79.056C432.247 81.0187 428.108 82 423.372 82H404.492V36.688H423.372ZM422.092 69.328C425.292 69.328 427.831 68.4533 429.708 66.704C431.586 64.9547 432.524 62.4587 432.524 59.216C432.524 55.9733 431.586 53.4773 429.708 51.728C427.831 49.9787 425.292 49.104 422.092 49.104H418.7V69.328H422.092ZM466.263 48.016V53.584H480.343V64.272H466.263V70.672H482.263V82H452.055V36.688H482.263V48.016H466.263ZM533.249 36.688L518.017 82H499.649L484.417 36.688H499.521L508.865 67.856L518.145 36.688H533.249Z" fill="url(#paint0_linear_2_16)"/>
<path d="M82.8661 66.6402C87.4646 64.7072 90.1109 62.4791 89.9044 57.088C92.0344 55.5666 92.459 54.4252 89.9044 51.147C87.4774 48.6277 86.2335 47.2125 80.6148 44.7739C78.2101 39.7515 78.3757 37.263 69.489 30.8396C65.2763 20.47 57.1749 13.989 27.5779 18.4174C30.2758 19.7677 31.4878 20.6001 32.3306 22.4144C25.3939 20.7951 21.0342 24.6902 13.1034 33.2163C11.3545 34.7072 10.207 35.1126 7.81051 34.9446C8.98719 35.9128 10.2075 36.1673 13.7515 35.9167C-6.98791 51.7954 14.8318 96.8391 49.2895 93.2745C54.5554 96.5637 56.9575 98.711 60.4155 102.996C62.6864 99.0876 64.1438 96.956 63.116 91.9783L65.0603 95.1108C65.4591 88.7193 65.0896 84.9322 62.1438 77.3958C64.0282 78.2561 65.4093 79.1266 66.5726 81.2844V83.4448C72.1645 84.3435 74.7596 83.4291 76.7263 74.8033C78.4591 73.9171 79.1576 73.2684 79.9669 71.8869C77.9922 72.7824 76.1488 73.2904 74.566 71.8869C73.1237 69.553 72.4668 68.2158 72.4056 65.6218C75.8168 62.4156 78.32 61.6551 83.9636 62.3812C84.3983 64.0772 84.1156 65.0069 82.8661 66.6402Z" fill="#0EA5E9"/>
<defs>
<linearGradient id="paint0_linear_2_16" x1="118" y1="59.344" x2="533.249" y2="59.344" gradientUnits="userSpaceOnUse">
<stop stop-color="#0284C7"/>
<stop offset="1" stop-color="#0EA5E9"/>
</linearGradient>
</defs>
</svg>
