<svg width="240" height="54" viewBox="0 0 240 54" fill="none" xmlns="http://www.w3.org/2000/svg">
<path d="M62.1353 36.31L56.2974 27.6097V36.31H50.0059V16.2456H56.2974V24.6908L62.0503 16.2456H69.1635L62.2486 25.8527L69.6169 36.31H62.1353ZM87.1555 16.2456V21.2334H81.8277V36.31H75.5363V21.2334H70.2652V16.2456H87.1555ZM95.1534 31.5489H101.218V36.31H88.8621V16.2456H95.1534V31.5489ZM136.92 16.2456L132.329 36.31H124.507L122.183 24.9175L119.859 36.31H112.038L107.447 16.2456H114.22L116.033 28.885L118.754 16.2456H125.612L128.333 28.885L130.147 16.2456H136.92ZM145.467 21.2617V23.7272H151.702V28.4599H145.467V31.2939H152.552V36.31H139.176V16.2456H152.552V21.2617H145.467ZM168.356 26.0227C169.565 26.3061 170.5 26.8918 171.161 27.7798C171.841 28.6489 172.181 29.6596 172.181 30.8121C172.181 32.5691 171.596 33.9294 170.424 34.893C169.272 35.8376 167.61 36.31 165.437 36.31H154.923V16.2456H165.153C167.194 16.2456 168.8 16.6896 169.971 17.5776C171.143 18.4655 171.728 19.7597 171.728 21.4601C171.728 22.6314 171.416 23.6233 170.793 24.4357C170.188 25.2292 169.376 25.7582 168.356 26.0227ZM161.214 24.0673H163.651C164.218 24.0673 164.634 23.9539 164.898 23.7272C165.182 23.5005 165.323 23.151 165.323 22.6787C165.323 22.1875 165.182 21.8285 164.898 21.6018C164.634 21.3561 164.218 21.2334 163.651 21.2334H161.214V24.0673ZM164.076 31.2655C164.643 31.2655 165.059 31.1616 165.323 30.9538C165.607 30.7271 165.748 30.3681 165.748 29.8769C165.748 28.9134 165.191 28.4316 164.076 28.4316H161.214V31.2655H164.076ZM187.471 16.2456C189.568 16.2456 191.401 16.6707 192.969 17.5209C194.556 18.3711 195.775 19.5519 196.625 21.0633C197.475 22.5747 197.9 24.294 197.9 26.2211C197.9 28.1293 197.475 29.8486 196.625 31.3789C195.775 32.9092 194.556 34.1184 192.969 35.0063C191.401 35.8754 189.568 36.31 187.471 36.31H179.111V16.2456H187.471ZM186.904 30.6987C188.321 30.6987 189.446 30.3114 190.277 29.5368C191.108 28.7622 191.524 27.657 191.524 26.2211C191.524 24.7852 191.108 23.68 190.277 22.9054C189.446 22.1308 188.321 21.7435 186.904 21.7435H185.402V30.6987H186.904ZM206.463 21.2617V23.7272H212.698V28.4599H206.463V31.2939H213.548V36.31H200.172V16.2456H213.548V21.2617H206.463ZM236.125 16.2456L229.38 36.31H221.247L214.502 16.2456H221.19L225.328 30.0469L229.437 16.2456H236.125Z" fill="url(#paint0_linear_42_2)"/>
<path d="M36.6935 29.5086C38.7297 28.6527 39.9015 27.6661 39.8101 25.2789C40.7532 24.6052 40.9412 24.0998 39.8101 22.6482C38.7354 21.5326 38.1846 20.9059 35.6966 19.8261C34.6318 17.6022 34.7051 16.5003 30.77 13.6559C28.9046 9.06424 25.3173 6.19442 12.2116 8.15534C13.4062 8.75326 13.9429 9.12185 14.3161 9.92523C11.2445 9.2082 9.31403 10.933 5.80223 14.7084C5.02781 15.3685 4.51969 15.548 3.4585 15.4737C3.97954 15.9024 4.51992 16.0151 6.08921 15.9041C-3.09431 22.9353 6.56758 42.8808 21.8256 41.3024C24.1574 42.7589 25.221 43.7097 26.7522 45.6071C27.7578 43.8765 28.4031 42.9326 27.948 40.7284L28.809 42.1155C28.9856 39.2853 28.822 37.6084 27.5175 34.2712C28.352 34.6522 28.9635 35.0376 29.4786 35.9931V36.9498C31.9548 37.3477 33.1039 36.9428 33.9747 33.1233C34.742 32.7309 35.0513 32.4436 35.4097 31.8319C34.5353 32.2284 33.719 32.4533 33.0181 31.8319C32.3795 30.7984 32.0886 30.2063 32.0615 29.0577C33.572 27.6379 34.6804 27.3012 37.1794 27.6227C37.3719 28.3737 37.2468 28.7854 36.6935 29.5086Z" fill="#0EA5E9"/>
<defs>
<linearGradient id="paint0_linear_42_2" x1="52.251" y1="26.2778" x2="236.125" y2="26.2778" gradientUnits="userSpaceOnUse">
<stop stop-color="#0284C7"/>
<stop offset="1" stop-color="#0EA5E9"/>
</linearGradient>
</defs>
</svg>
