<svg width="212" height="212" viewBox="0 0 212 212" fill="none" xmlns="http://www.w3.org/2000/svg">
<path d="M105.999 0C47.4585 0 0.00109863 47.4588 0.00109863 105.999C0.00109863 164.538 47.4585 212 105.999 212C164.539 212 212 164.538 212 105.999C212 47.4588 164.539 0 105.999 0ZM106.001 37.2318L168.727 76.3462H43.2743L106.001 37.2318ZM169.509 138.807H169.502C169.502 145.081 164.418 150.165 158.145 150.165H53.8567C47.5829 150.165 42.499 145.08 42.499 138.807V78.8351C42.499 78.1715 42.5669 77.5263 42.6771 76.8925L102.609 114.263C102.682 114.309 102.761 114.341 102.836 114.383C102.915 114.427 102.996 114.469 103.077 114.509C103.5 114.728 103.936 114.904 104.382 115.019C104.428 115.032 104.474 115.037 104.52 115.048C105.009 115.163 105.504 115.235 105.999 115.235H106.002C106.006 115.235 106.009 115.235 106.009 115.235C106.504 115.235 106.999 115.165 107.488 115.048C107.534 115.037 107.58 115.032 107.626 115.019C108.071 114.904 108.506 114.728 108.931 114.509C109.012 114.469 109.092 114.427 109.172 114.383C109.246 114.341 109.326 114.309 109.399 114.263L169.331 76.8925C169.441 77.5263 169.509 78.1701 169.509 78.8351V138.807Z" fill="#94A3B8"/>
</svg>
